<mxfile host="65bd71144e">
  <diagram id="phase1-onboarding" name="Phase 1 - Quick Start">
    <mxGraphModel dx="1422" dy="794" grid="1" gridSize="10" guides="1" tooltips="1" connect="1" arrows="1" fold="1" page="1" pageScale="1" pageWidth="375" pageHeight="812" math="0" shadow="0">
      <root>
        <mxCell id="0" />
        <mxCell id="1" parent="0" />
        <mxCell id="2" value="" style="rounded=1;whiteSpace=wrap;html=1;strokeWidth=3;strokeColor=#666666;fillColor=none;" vertex="1" parent="1">
          <mxGeometry x="50" y="50" width="275" height="550" as="geometry" />
        </mxCell>
        <mxCell id="3" value="9:41 AM    📶📶📶 🔋85%" style="text;html=1;strokeColor=none;fillColor=none;align=center;verticalAlign=middle;whiteSpace=wrap;rounded=0;fontSize=12;" vertex="1" parent="1">
          <mxGeometry x="70" y="65" width="235" height="20" as="geometry" />
        </mxCell>
        <mxCell id="4" value="● ○ ○" style="text;html=1;strokeColor=none;fillColor=none;align=center;verticalAlign=middle;whiteSpace=wrap;rounded=0;fontSize=16;" vertex="1" parent="1">
          <mxGeometry x="70" y="95" width="235" height="20" as="geometry" />
        </mxCell>
        <mxCell id="5" value="Step 1 of 3" style="text;html=1;strokeColor=none;fillColor=none;align=center;verticalAlign=middle;whiteSpace=wrap;rounded=0;fontSize=12;fontColor=#666666;" vertex="1" parent="1">
          <mxGeometry x="70" y="115" width="235" height="20" as="geometry" />
        </mxCell>
        <mxCell id="6" value="Let's start your retirement journey!" style="text;html=1;strokeColor=none;fillColor=none;align=center;verticalAlign=middle;whiteSpace=wrap;rounded=0;fontSize=18;fontStyle=1;" vertex="1" parent="1">
          <mxGeometry x="80" y="150" width="215" height="50" as="geometry" />
        </mxCell>
        <mxCell id="7" value="What's your current age?" style="text;html=1;strokeColor=none;fillColor=none;align=left;verticalAlign=middle;whiteSpace=wrap;rounded=0;fontSize=16;fontStyle=1;" vertex="1" parent="1">
          <mxGeometry x="80" y="210" width="215" height="25" as="geometry" />
        </mxCell>
        <mxCell id="8" value="32" style="rounded=1;whiteSpace=wrap;html=1;fillColor=#ffffff;strokeColor=#007acc;strokeWidth=2;align=center;fontSize=18;" vertex="1" parent="1">
          <mxGeometry x="80" y="240" width="215" height="45" as="geometry" />
        </mxCell>
        <mxCell id="9" value="How much have you saved so far?" style="text;html=1;strokeColor=none;fillColor=none;align=left;verticalAlign=middle;whiteSpace=wrap;rounded=0;fontSize=16;fontStyle=1;" vertex="1" parent="1">
          <mxGeometry x="80" y="305" width="215" height="25" as="geometry" />
        </mxCell>
        <mxCell id="10" value="$ 85,000" style="rounded=1;whiteSpace=wrap;html=1;fillColor=#ffffff;strokeColor=#cccccc;align=center;fontSize=18;" vertex="1" parent="1">
          <mxGeometry x="80" y="335" width="215" height="45" as="geometry" />
        </mxCell>
        <mxCell id="11" value="How much do you save monthly?" style="text;html=1;strokeColor=none;fillColor=none;align=left;verticalAlign=middle;whiteSpace=wrap;rounded=0;fontSize=16;fontStyle=1;" vertex="1" parent="1">
          <mxGeometry x="80" y="400" width="215" height="25" as="geometry" />
        </mxCell>
        <mxCell id="12" value="$ 1,200" style="rounded=1;whiteSpace=wrap;html=1;fillColor=#ffffff;strokeColor=#cccccc;align=center;fontSize=18;" vertex="1" parent="1">
          <mxGeometry x="80" y="430" width="215" height="45" as="geometry" />
        </mxCell>
        <mxCell id="13" value="Show My Retirement Projection 🚀" style="rounded=1;whiteSpace=wrap;html=1;fillColor=#007acc;strokeColor=#005a9e;fontColor=#ffffff;fontSize=16;fontStyle=1;" vertex="1" parent="1">
          <mxGeometry x="80" y="500" width="215" height="50" as="geometry" />
        </mxCell>
        <mxCell id="14" value="🔒 Takes 30 seconds • Secure &amp; Private" style="text;html=1;strokeColor=none;fillColor=none;align=center;verticalAlign=middle;whiteSpace=wrap;rounded=0;fontSize=12;fontColor=#666666;" vertex="1" parent="1">
          <mxGeometry x="80" y="565" width="215" height="20" as="geometry" />
        </mxCell>
      </root>
    </mxGraphModel>
  </diagram>
</mxfile>